<svg xmlns="http://www.w3.org/2000/svg" width="240.648" height="67.95" viewBox="-0.598 -0.947 240.648 67.95" enable-background="new -0.598 -0.947 240.648 67.95"><g><path fill="#004270" stroke="#fff" stroke-width="1.843" d="M72.121 61.015c-.545 2.798-3.253 5.065-6.051 5.065h-61.57c-2.799 0-4.624-2.269-4.081-5.065l10.88-55.976c.544-2.797 3.252-5.064 6.05-5.064h61.571c2.798 0 4.625 2.268 4.081 5.064l-10.88 55.976z"/><path fill="#fff" d="M70.924 17.447c-.926-1.092-2.388-1.717-4.002-1.717h-14.837l1.626-7.857h-34.326l-1.956 9.562h7.06c.576 0 1.638 0 2.188.644.104.127.361.42.398 1.154.02.336-.014.76-.121 1.301-.002.002-4.658 22.705-4.948 24.123-.725 2.65-2.081 3.777-4.524 3.777h-6.433l-2.003 9.748h34.313l1.649-8.053h3.266c1.791 0 3.758-.1 5.486-.574-.059.303-.142.604-.142.604l2.226-.002h9.99l4.135-19.767h-17.656l-1.489 7.988h5.266c-.104.491-.202.995-.276 1.429-.379 1.782-1.271 2.604-2.959 2.741h-6.133l-.076-.004c-.001-.109.012-.243.053-.455 0 0 3.611-17.345 3.691-17.744.196-.856.367-1.169.434-1.265.138-.019.433-.017.659-.017l.236.003h7.423l.059-.005-.016.05-.013.109c-.036.332-.266 1.477-.413 2.178l-.455 2.124h12.232l.27-1.278c.033-.139.73-3.436 1.035-5.108l-.006.04c.294-1.374-.031-2.697-.911-3.729z"/><path fill="#004270" d="M37.72 50.129c-2.27 0-5.154-.918-4.271-5.209 0 0 4.976-24.204 4.972-24.19.958-3.731 3.093-4.997 6.139-4.997h5.722l1.276-6.154h-30.714l-1.258 6.156h4.813c.748 0 2.492 0 3.599 1.297.805.938 1.023 2.217.676 3.914l-4.965 24.191c-.82 3.04-2.617 5.001-6.145 5.001h-5.056l-1.308 6.344h30.7l1.309-6.353h-5.489zM37.611 48.431c-1.531 0-3.049-.262-2.463-3.103l4.967-24.203c.502-2.575 2.264-3.694 4.509-3.694h22.384c2.082 0 3.513 1.419 3.108 3.324-.309 1.677-1.028 5.069-1.028 5.069h-8.616s.381-1.771.444-2.334c.426-1.678-.555-2.238-1.934-2.125h-7.351c-1.5 0-2.352-.151-2.958 2.549l-3.689 17.762c-.248 1.178-.123 2.46 1.74 2.574h6.311c2.992-.228 4.094-2.129 4.5-4.033.222-1.34.732-3.537.732-3.537h-5.328l.853-4.59h14.018l-3.428 16.343h-8.625l.561-2.69c-.881 1.791-3.344 2.688-8.135 2.688h-10.572z"/><path d="M111.937 17.587l-1.426.311c-.827.177-1.637.888-1.872 1.997l-1.729 8.123c-.095.444-.109.932.097 1.199.113.089.172.222.135.398-.065.312-.26.399-.479.399-.177 0-.421-.089-.542-.133l-2.729-1.199c-.356-.177-.664-.177-1.027.089-1.126.754-3.406 1.376-5.206 1.376-6.756 0-11.075-4.438-9.085-13.804 1.784-8.391 7.787-13.716 14.367-13.716 2.632 0 5.345.444 7.765.622.264 0 .45.354.402.576l-1.491 7.015c-.085.399-.395.621-.569.621-.221 0-.4-.179-.423-.488-.118-4.396-1.801-6.392-6.012-6.392-5.746 0-7.94 8.256-8.828 12.428-.952 4.482-1.088 11.098 4.483 11.098 2.105 0 5.056-1.91 5.632-4.617l.868-4.084c.189-.888.064-1.332-.143-1.598-.241-.311-.477-.443-.419-.71.047-.222.26-.399.654-.399h7.766c.351 0 .522.223.476.444-.028.132-.251.355-.665.444zm16.182-2.041c-.129.399-.28.71-.676.71-.438 0-.317-.977-.367-1.376-.055-.978-.735-1.687-2.098-1.687-1.535 0-3.059.977-4.059 2.174-.411.488-.803 1.287-.934 1.908l-1.974 9.277c-.234 1.109.281 1.775 1.022 1.997l.865.267c.367.133.646.267.599.488-.058.266-.394.398-.787.398h-9.081c-.396 0-.674-.133-.627-.354.057-.267.393-.399.814-.532l.979-.267c.837-.222 1.593-.888 1.828-1.997l2.634-12.384c.233-1.11-.272-1.82-1.033-1.953l-1.304-.267c-.376-.09-.646-.268-.599-.488.058-.266.393-.399.787-.399h5.616c.395 0 .566.222.587.533l.185 1.819c.039.223.285.312.509.09 1.74-1.998 3.99-2.885 6.447-2.885.438 0 1.067.133 1.436.266.244.089.68.311.559.666l-1.328 3.996zm6.766 14.602c-5.703 0-7.816-4.705-6.73-9.81 1.084-5.104 5.226-9.722 10.886-9.722 5.7 0 7.836 4.617 6.75 9.722s-5.202 9.81-10.906 9.81zm3.641-17.533c-3.553 0-4.979 3.817-5.688 7.146-.707 3.329-1.228 8.655 2.547 8.655 3.553 0 5.029-4.261 5.709-7.457.726-3.416 1.249-8.344-2.568-8.344zm27.117 17.09h-6.01c-.353 0-.533-.178-.599-.488l-.274-.977c-.051-.179-.215-.223-.43-.045-1.435 1.377-3.441 1.953-5.283 1.953-3.644 0-5.701-2.486-4.729-7.058l1.888-8.877c.235-1.109-.281-1.775-1.023-1.997l-.908-.268c-.322-.133-.602-.267-.555-.487.057-.267.393-.399.787-.399h7.371c.395 0 .541.133.494.355-.058.266-.384.354-.703.621-.373.311-.726.932-1.009 2.264l-2.02 9.499c-.547 2.574.178 3.905 2.152 3.905 1.668 0 4.373-1.377 4.815-3.463l2.133-10.03c.236-1.109-.19-1.775-.936-1.997l-.863-.268c-.332-.088-.645-.267-.598-.487.055-.267.391-.399.785-.399h6.229c.351 0 .576.178.5.533l-.799 2.93-2.566 12.072c-.235 1.109.236 1.775 1.033 1.953l1.304.268c.331.088.653.221.598.487-.053.267-.39.4-.784.4zm39.201-9.41h-9.607c-.481 0-1.006.398-1.108.888-.968 4.749.793 6.791 3.25 6.791 1.973 0 4.17-1.465 5.27-2.708.168-.177.301-.177.414-.088l.728.71c.102.133.084.222.012.354-1.666 2.265-4.779 3.906-7.764 3.906-3.99 0-7.882-2.752-6.369-9.854 1.235-5.814 5.873-9.676 10.653-9.676 3.816 0 7.08 2.396 5.814 8.345-.123.576-.722 1.332-1.293 1.332zm-4.873-8.034c-2.148 0-4.023 2.22-5.06 5.638-.146.488.017.754.498.754 0 0 1.308.045 2.271.045h.922c.832 0 1.412-.045 1.934-.222.882-.222 1.238-.666 1.39-1.376.577-2.709-.024-4.839-1.955-4.839zm-22.483 17.889c-1.713 0-2.518-.134-3.616-.533-.244-.09-.414.088-.462.311l-.842 3.523c-.235 1.109.238 1.774 1.033 1.953l1.303.267c.332.088.654.222.599.487-.057.267-.392.399-.787.399h-7.722c-.395 0-.54-.133-.493-.354.057-.266.383-.354.703-.621.372-.312.725-.932.997-2.221l4.162-19.146c.236-1.11-.217-1.864-.979-1.998l-1.303-.268c-.377-.088-.646-.266-.601-.487.058-.267.394-.399.787-.399h5.703c.352 0 .522.223.588.533l.197.932c.061.135.129.224.26.224.088 0 .238-.089.398-.224 1.6-1.33 3.389-1.908 4.836-1.908 3.991 0 6.918 2.752 5.397 9.898-1.279 6.036-5.904 9.632-10.158 9.632zm3.465-17.134c-1.403 0-2.985.844-4.149 2.396-.197.312-.486.845-.562 1.199l-1.565 7.367c-.652 3.063.186 4.484 2.774 4.484 1.974 0 4.431-2.264 5.638-7.946 1.17-5.503-.118-7.5-2.136-7.5zm-89.67 48.855h-11.404c-.396 0-.674-.133-.626-.354.057-.267.41-.489.813-.532l1.855-.267c.816-.134 1.637-.888 1.873-1.998l2.214-10.209 2.107-10.12c.236-1.109-.262-1.863-1.021-1.997l-1.742-.267c-.386-.044-.646-.268-.598-.488.056-.266.392-.398.786-.398h11.405c.396 0 .675.133.626.354-.057.267-.411.488-.813.532l-1.855.267c-.817.134-1.637.888-1.872 1.997l-2.196 10.12-2.127 10.209c-.235 1.11.262 1.864 1.022 1.998l1.742.267c.385.043.645.267.598.487-.057.266-.392.399-.787.399zm23.206 0h-7.37c-.395 0-.541-.133-.493-.354.057-.267.383-.354.701-.622.373-.311.726-.932 1.009-2.264l2.021-9.498c.547-2.575-.179-3.906-2.151-3.906-1.669 0-4.373 1.376-4.816 3.462l-2.134 10.031c-.235 1.11.192 1.774.936 1.998l.864.267c.332.088.646.267.598.487-.057.267-.392.399-.786.399h-8.994c-.396 0-.675-.133-.627-.354.057-.267.393-.399.815-.532l.979-.267c.837-.224 1.593-.888 1.827-1.998l2.635-12.384c.234-1.109-.229-1.819-1.032-1.953l-1.742-.266c-.342-.045-.655-.223-.599-.488.056-.266.393-.4.787-.4h6.448c.352 0 .532.178.599.488l.274.977c.05.178.216.223.43.045 1.434-1.375 3.441-1.953 5.284-1.953 3.642 0 5.7 2.485 4.729 7.058l-1.888 8.877c-.236 1.11.279 1.774 1.021 1.998l.908.267c.323.133.602.267.555.487-.058.265-.392.398-.788.398zm21.928-17.711c-.486.223-.99.533-1.388 1.154l-10.539 16.557c-.188.267-.797.443-1.409.443-.527 0-1.104-.178-1.144-.4l-3.656-16.645c-.104-.531-.521-.843-.985-.932l-1.006-.223c-.332-.088-.654-.222-.588-.532.048-.222.383-.355.777-.355h8.906c.395 0 .682.089.625.355-.064.311-.392.399-.814.532l-1.207.312c-.467.133-.664.442-.75.843-.047.223-.059.488-.01.666l1.603 10.209c.041.223.393.223.526 0l6.031-10.209c.125-.178.227-.443.273-.666.084-.398.02-.71-.392-.843l-1.164-.312c-.375-.088-.654-.222-.588-.532.057-.267.383-.355.777-.355h6.186c.396 0 .674.134.627.355-.055.268-.346.4-.691.578zm13.5 8.301h-9.607c-.482 0-1.006.398-1.109.888-.965 4.75.793 6.792 3.25 6.792 1.976 0 4.173-1.465 5.271-2.708.17-.178.301-.178.414-.089l.727.71c.104.133.084.222.013.354-1.666 2.265-4.779 3.906-7.763 3.906-3.992 0-7.881-2.752-6.371-9.854 1.236-5.815 5.875-9.676 10.656-9.676 3.816 0 7.078 2.396 5.814 8.345-.125.578-.726 1.332-1.295 1.332zm-4.871-8.033c-2.15 0-4.025 2.219-5.06 5.637-.147.488.015.756.496.756 0 0 1.308.043 2.273.043h.92c.834 0 1.414-.043 1.934-.222.881-.222 1.238-.666 1.392-1.376.573-2.709-.026-4.838-1.955-4.838zm13.172 17.886c-2.412 0-5.404-.576-6.479-.888-.289-.088-.471-.267-.446-.577.098-.666.27-1.688.354-2.486.115-.754.236-1.729.279-2.352.014-.268.201-.533.51-.533.262 0 .479.223.465.488.49 3.684 2.197 4.527 5.793 4.527 1.623 0 3.908-.844 4.314-2.752.992-4.66-10.453-2.619-8.943-9.722.707-3.329 3.264-5.237 7.738-5.237 2.324 0 6.422.533 6.422.533.264 0 .393.221.346.443l-.903 4.66c-.037.178-.201.533-.466.533-.174 0-.313-.178-.354-.399-.389-3.329-1.947-4.039-5.238-4.039-1.93 0-3.582.754-3.959 2.529-.813 3.817 10.724 2.175 9.137 9.632-.992 4.665-4.843 5.64-8.57 5.64zm22.382-1.287c-1.104.666-2.736 1.11-4.623 1.11-3.553 0-5.598-1.11-4.975-4.039l2.68-12.606h-3.465c-.219 0-.4-.176-.354-.398l.304-1.42c.057-.266.27-.444.532-.444h2.808c.438 0 .924-.222 1.487-1.021l3.621-5.061c.189-.266.49-.443.752-.443.265 0 .533.178.449.576l-1.266 5.947h5c.309 0 .42.09.363.355l-.349 1.643c-.057.266-.252.355-.471.355l-5.027-.09-2.479 11.674c-.426 1.998-.367 3.373 1.957 3.373.922 0 2.067-.443 2.662-.754.192-.088.379-.133.428.045l.129.843c.05.178.033.266-.163.355zm8.763 1.287c-5.703 0-7.815-4.705-6.731-9.81 1.086-5.104 5.227-9.722 10.885-9.722 5.703 0 7.836 4.617 6.752 9.722-1.087 5.105-5.202 9.81-10.906 9.81zm3.642-17.533c-3.554 0-4.979 3.817-5.688 7.146-.707 3.329-1.227 8.655 2.547 8.655 3.554 0 5.029-4.261 5.709-7.457.727-3.416 1.247-8.344-2.568-8.344zm24.207 2.931c-.129.399-.283.71-.679.71-.438 0-.319-.977-.364-1.376-.058-.978-.738-1.687-2.101-1.687-1.535 0-3.059.977-4.059 2.174-.412.488-.801 1.287-.935 1.91l-1.973 9.275c-.234 1.109.281 1.775 1.023 1.998l.864.266c.367.133.646.268.599.488-.058.268-.394.398-.787.398h-9.08c-.396 0-.674-.133-.627-.354.057-.268.393-.4.813-.533l.979-.266c.838-.223 1.594-.889 1.828-1.998l2.635-12.384c.236-1.109-.271-1.819-1.033-1.953l-1.303-.267c-.377-.088-.646-.266-.598-.487.057-.267.391-.4.786-.4h5.613c.396 0 .568.224.59.533l.185 1.819c.041.223.285.312.508.089 1.74-1.997 3.99-2.886 6.447-2.886.438 0 1.067.134 1.436.268.244.089.68.311.562.665l-1.329 3.998zm6.192 14.602c-2.412 0-5.403-.576-6.479-.888-.289-.088-.471-.267-.449-.577.1-.666.271-1.688.354-2.486.116-.754.235-1.729.28-2.352.015-.268.201-.533.508-.533.265 0 .48.223.468.488.487 3.684 2.194 4.527 5.793 4.527 1.623 0 3.908-.844 4.313-2.752.99-4.66-10.455-2.619-8.942-9.722.707-3.329 3.264-5.237 7.735-5.237 2.326 0 6.424.533 6.424.533.265 0 .394.221.345.443l-.902 4.66c-.037.178-.201.533-.465.533-.176 0-.313-.178-.354-.399-.389-3.329-1.948-4.039-5.237-4.039-1.931 0-3.582.754-3.961 2.529-.812 3.817 10.725 2.175 9.139 9.632-.991 4.665-4.84 5.64-8.57 5.64z"/></g></svg>