<svg xmlns="http://www.w3.org/2000/svg" width="240.648" height="67.95" viewBox="-0.598 -0.947 240.648 67.95" enable-background="new -0.598 -0.947 240.648 67.95"><g><path d="M106.039 46.341l-1.427.311c-.828.178-1.637.889-1.873 1.997l-1.728 8.123c-.094.444-.11.933.096 1.198.113.089.172.223.134.4-.065.311-.26.398-.479.398-.176 0-.42-.089-.542-.133l-2.729-1.198c-.356-.178-.664-.178-1.026.089-1.126.754-3.407 1.377-5.206 1.377-6.756 0-11.076-4.439-9.084-13.806 1.784-8.389 7.786-13.715 14.366-13.715 2.632 0 5.345.444 7.764.622.263 0 .451.355.404.577l-1.492 7.013c-.084.398-.396.622-.57.622-.22 0-.4-.177-.423-.488-.118-4.394-1.799-6.392-6.011-6.392-5.747 0-7.941 8.256-8.828 12.428-.954 4.482-1.088 11.098 4.482 11.098 2.106 0 5.057-1.91 5.633-4.617l.867-4.082c.189-.889.064-1.332-.143-1.599-.241-.311-.476-.442-.419-.71.047-.222.26-.398.655-.398h7.765c.351 0 .523.222.476.443-.026.131-.25.353-.662.442zm16.182-2.042c-.129.399-.283.71-.678.71-.439 0-.32-.977-.367-1.376-.055-.978-.736-1.687-2.099-1.687-1.534 0-3.059.977-4.059 2.174-.412.49-.8 1.289-.933 1.91l-1.974 9.276c-.235 1.11.281 1.774 1.023 1.998l.864.267c.365.133.645.267.599.487-.057.267-.393.399-.787.399h-9.081c-.395 0-.674-.133-.626-.354.058-.267.393-.399.815-.532l.979-.267c.836-.222 1.592-.888 1.828-1.998l2.634-12.384c.235-1.109-.271-1.82-1.031-1.953l-1.305-.266c-.376-.09-.646-.267-.598-.488.056-.266.392-.398.786-.398h5.615c.396 0 .566.221.589.532l.184 1.819c.04.223.284.311.506.089 1.742-1.998 3.992-2.886 6.449-2.886.439 0 1.068.134 1.436.268.244.088.681.311.56.666l-1.329 3.994zm6.764 14.602c-5.703 0-7.815-4.705-6.731-9.81 1.086-5.104 5.227-9.722 10.887-9.722 5.701 0 7.834 4.617 6.75 9.722-1.088 5.105-5.203 9.81-10.906 9.81zm3.642-17.533c-3.554 0-4.979 3.817-5.688 7.146-.707 3.329-1.227 8.655 2.547 8.655 3.554 0 5.029-4.261 5.709-7.457.727-3.416 1.247-8.344-2.568-8.344zm27.116 17.09h-6.01c-.352 0-.533-.178-.598-.488l-.275-.977c-.051-.178-.217-.222-.43-.043-1.434 1.375-3.441 1.953-5.283 1.953-3.643 0-5.701-2.486-4.729-7.059l1.889-8.877c.236-1.109-.281-1.775-1.023-1.998l-.907-.266c-.322-.133-.603-.267-.556-.488.058-.266.394-.398.787-.398h7.371c.396 0 .541.133.494.354-.057.267-.383.354-.703.621-.373.311-.725.933-1.008 2.264l-2.021 9.499c-.547 2.574.179 3.906 2.152 3.906 1.668 0 4.373-1.376 4.816-3.463l2.133-10.031c.236-1.109-.191-1.775-.937-1.998l-.862-.266c-.332-.09-.646-.267-.601-.488.058-.266.394-.398.787-.398h6.23c.352 0 .575.176.5.532l-.8 2.929-2.565 12.074c-.236 1.109.236 1.775 1.031 1.953l1.305.266c.332.09.654.223.598.488-.055.266-.391.399-.785.399zm11.845.445c-1.711 0-2.517-.134-3.615-.533-.244-.09-.414.089-.461.311l-.842 3.521c-.234 1.11.235 1.776 1.032 1.953l1.304.268c.332.089.653.222.598.488-.057.266-.391.398-.787.398h-7.719c-.396 0-.543-.133-.496-.355.057-.267.383-.354.703-.621.373-.312.725-.932.998-2.221l4.162-19.146c.235-1.11-.217-1.864-.979-1.998l-1.303-.266c-.377-.09-.646-.268-.6-.488.057-.268.393-.399.786-.399h5.703c.353 0 .523.222.588.532l.197.934c.062.133.129.222.26.222.089 0 .238-.089.398-.222 1.6-1.332 3.389-1.91 4.836-1.91 3.992 0 6.918 2.752 5.398 9.898-1.281 6.038-5.906 9.634-10.161 9.634zm3.465-17.134c-1.402 0-2.986.844-4.15 2.396-.196.312-.485.844-.561 1.199l-1.566 7.369c-.651 3.063.188 4.482 2.775 4.482 1.975 0 4.428-2.264 5.637-7.946 1.17-5.503-.117-7.5-2.135-7.5zm-77.487-12.552h-11.406c-.395 0-.673-.133-.626-.355.058-.267.411-.488.815-.533l1.855-.266c.817-.133 1.637-.888 1.872-1.998l2.216-10.209 2.108-10.12c.236-1.109-.261-1.864-1.022-1.997l-1.742-.267c-.385-.044-.646-.266-.598-.488.057-.266.392-.399.786-.399h11.406c.396 0 .674.133.626.354-.057.267-.411.488-.814.533l-1.855.267c-.818.133-1.637.888-1.872 1.997l-2.196 10.12-2.127 10.209c-.235 1.11.263 1.864 1.022 1.998l1.742.266c.386.044.646.266.598.488-.056.267-.392.4-.788.4zm23.206 0h-7.371c-.395 0-.541-.133-.494-.355.058-.267.384-.355.702-.622.373-.311.726-.932 1.008-2.264l2.021-9.499c.547-2.574-.178-3.906-2.152-3.906-1.668 0-4.373 1.376-4.815 3.462l-2.134 10.031c-.235 1.11.192 1.775.936 1.998l.864.266c.332.089.646.266.599.488-.057.266-.392.399-.787.399h-8.993c-.395 0-.674-.133-.626-.355.058-.267.393-.399.815-.533l.978-.266c.837-.222 1.594-.888 1.829-1.998l2.633-12.384c.236-1.11-.227-1.82-1.031-1.953l-1.742-.267c-.341-.044-.654-.222-.599-.488.057-.266.393-.399.787-.399h6.449c.353 0 .532.178.599.488l.274.977c.05.177.216.222.43.044 1.434-1.376 3.441-1.953 5.285-1.953 3.642 0 5.701 2.486 4.729 7.057l-1.89 8.877c-.235 1.11.281 1.775 1.023 1.998l.908.266c.321.133.602.266.555.488-.058.27-.394.403-.79.403zm21.928-17.71c-.485.222-.989.533-1.387 1.154l-10.541 16.556c-.188.267-.795.444-1.408.444-.526 0-1.104-.177-1.145-.399l-3.654-16.645c-.104-.533-.522-.844-.985-.933l-1.007-.222c-.332-.089-.653-.222-.588-.533.047-.222.383-.355.777-.355h8.904c.395 0 .684.089.627.355-.066.311-.394.399-.816.533l-1.205.311c-.467.133-.666.444-.75.844-.047.222-.061.488-.01.666l1.602 10.208c.041.222.392.222.525 0l6.033-10.208c.125-.178.225-.444.271-.666.086-.4.021-.71-.391-.844l-1.162-.311c-.375-.089-.654-.222-.588-.533.057-.266.383-.355.777-.355h6.186c.395 0 .674.133.625.355-.054.267-.345.4-.69.578zm13.5 8.3h-9.606c-.482 0-1.006.399-1.109.888-.967 4.749.793 6.791 3.248 6.791 1.976 0 4.174-1.465 5.271-2.708.17-.178.303-.178.414-.089l.727.71c.104.133.084.222.014.355-1.666 2.264-4.778 3.906-7.762 3.906-3.992 0-7.883-2.752-6.371-9.854 1.236-5.814 5.873-9.676 10.654-9.676 3.816 0 7.08 2.397 5.816 8.344-.125.579-.726 1.333-1.296 1.333zm-4.87-8.035c-2.15 0-4.027 2.22-5.062 5.637-.146.488.016.754.498.754 0 0 1.307.044 2.271.044h.923c.832 0 1.412-.044 1.934-.222.881-.222 1.238-.666 1.389-1.376.575-2.705-.024-4.837-1.953-4.837zm13.172 17.889c-2.412 0-5.404-.577-6.479-.888-.289-.089-.471-.266-.449-.577.101-.666.271-1.687.354-2.485.117-.755.236-1.731.281-2.353.014-.267.2-.533.508-.533.264 0 .479.222.467.488.488 3.684 2.195 4.527 5.793 4.527 1.623 0 3.908-.843 4.314-2.752.989-4.661-10.455-2.619-8.943-9.72.707-3.329 3.262-5.238 7.736-5.238 2.325 0 6.424.533 6.424.533.264 0 .391.222.344.444l-.902 4.661c-.039.177-.2.532-.465.532-.176 0-.313-.177-.354-.399-.39-3.329-1.949-4.039-5.238-4.039-1.932 0-3.582.755-3.961 2.53-.812 3.817 10.725 2.175 9.139 9.632-.992 4.66-4.842 5.637-8.569 5.637zm22.382-1.287c-1.107.666-2.736 1.11-4.623 1.11-3.553 0-5.601-1.11-4.978-4.04l2.683-12.605h-3.464c-.222 0-.402-.178-.354-.399l.301-1.42c.058-.266.271-.444.533-.444h2.81c.438 0 .924-.222 1.487-1.021l3.621-5.06c.188-.266.488-.444.752-.444.265 0 .533.178.447.577l-1.264 5.948h5c.307 0 .42.089.362.355l-.35 1.642c-.057.267-.252.355-.471.355l-5.025-.089-2.482 11.673c-.426 1.998-.366 3.374 1.96 3.374.922 0 2.067-.444 2.659-.754.195-.089.379-.133.431.044l.129.843c.048.177.029.266-.164.355zm8.763 1.287c-5.703 0-7.817-4.705-6.731-9.81 1.086-5.104 5.225-9.72 10.885-9.72 5.703 0 7.836 4.616 6.75 9.72-1.086 5.105-5.203 9.81-10.904 9.81zm3.642-17.532c-3.556 0-4.98 3.817-5.688 7.146-.709 3.329-1.227 8.655 2.547 8.655 3.553 0 5.029-4.261 5.709-7.457.727-3.418 1.247-8.344-2.568-8.344zm24.204 2.929c-.129.399-.282.71-.678.71-.438 0-.317-.977-.365-1.376-.055-.977-.737-1.687-2.098-1.687-1.535 0-3.059.977-4.061 2.175-.41.488-.8 1.287-.933 1.908l-1.973 9.277c-.236 1.11.279 1.775 1.022 1.998l.863.266c.367.133.646.266.601.488-.06.266-.394.399-.787.399h-9.082c-.396 0-.674-.133-.625-.355.057-.267.393-.399.813-.533l.979-.266c.836-.222 1.592-.888 1.828-1.998l2.633-12.384c.235-1.11-.271-1.82-1.031-1.953l-1.305-.267c-.375-.089-.646-.267-.599-.488.058-.267.394-.399.787-.399h5.615c.395 0 .566.222.588.533l.185 1.82c.041.222.284.311.508.089 1.739-1.998 3.992-2.885 6.449-2.885.438 0 1.067.133 1.434.266.244.089.68.311.561.666l-1.329 3.996zm6.195 14.603c-2.414 0-5.404-.577-6.479-.888-.287-.089-.47-.266-.447-.577.098-.666.271-1.687.354-2.485.117-.755.236-1.731.281-2.353.012-.267.201-.533.508-.533.265 0 .479.222.468.488.487 3.684 2.194 4.527 5.791 4.527 1.625 0 3.909-.843 4.313-2.752.992-4.661-10.453-2.619-8.943-9.72.709-3.329 3.265-5.238 7.738-5.238 2.326 0 6.424.533 6.424.533.263 0 .392.222.345.444l-.904 4.661c-.037.177-.199.532-.463.532-.176 0-.314-.177-.354-.399-.391-3.329-1.949-4.039-5.24-4.039-1.93 0-3.581.755-3.959 2.53-.813 3.817 10.726 2.175 9.14 9.632-.997 4.66-4.843 5.637-8.573 5.637z"/><path fill="#004270" stroke="#fff" stroke-width="1.843" d="M72.121 61.016c-.545 2.798-3.254 5.065-6.051 5.065h-61.57c-2.798 0-4.625-2.269-4.081-5.065l10.88-55.976c.543-2.797 3.252-5.065 6.05-5.065h61.572c2.797 0 4.624 2.268 4.081 5.065l-10.881 55.976z"/><path fill="#fff" d="M70.924 17.448c-.925-1.09-2.386-1.716-4.002-1.716h-14.837l1.625-7.855h-34.325l-1.956 9.561h7.059c.577 0 1.638 0 2.188.644.104.126.36.42.398 1.153.02.335-.014.76-.122 1.301-.001.002-4.657 22.705-4.948 24.123-.725 2.651-2.081 3.778-4.524 3.778h-6.433l-2.002 9.748h34.313l1.649-8.052h3.266c1.791 0 3.759-.102 5.487-.574-.059.303-.142.604-.142.604l2.226-.002h9.99l4.135-19.767h-17.655l-1.49 7.988h5.266c-.103.491-.202.996-.276 1.429-.38 1.782-1.271 2.604-2.959 2.741h-6.135l-.076-.004c-.001-.109.012-.243.052-.455 0 0 3.612-17.345 3.692-17.744.197-.856.368-1.168.434-1.264.138-.019.432-.017.659-.017l.236.003h7.423l.058-.005-.015.049-.013.111c-.037.332-.266 1.476-.414 2.178l-.456 2.124h12.233l.27-1.28c.032-.137.73-3.435 1.035-5.108l-.007.04c.298-1.377-.027-2.701-.907-3.732z"/><path fill="#004270" d="M37.721 50.13c-2.27 0-5.155-.918-4.271-5.21 0 0 4.976-24.204 4.972-24.19.958-3.731 3.092-4.999 6.139-4.999h5.722l1.276-6.154h-30.715l-1.259 6.157h4.815c.748 0 2.492 0 3.599 1.297.805.938 1.023 2.217.675 3.914l-4.964 24.191c-.82 3.039-2.617 5.001-6.144 5.001h-5.056l-1.308 6.343h30.7l1.31-6.351-5.491.001zM37.611 48.431c-1.531 0-3.049-.262-2.464-3.104l4.967-24.203c.503-2.576 2.264-3.694 4.51-3.694h22.383c2.082 0 3.513 1.418 3.108 3.324-.308 1.678-1.028 5.07-1.028 5.07h-8.617s.381-1.773.445-2.335c.426-1.677-.555-2.238-1.934-2.124h-7.351c-1.5 0-2.352-.151-2.958 2.549l-3.689 17.761c-.248 1.178-.124 2.46 1.74 2.573h6.31c2.992-.227 4.094-2.129 4.501-4.032.221-1.34.731-3.537.731-3.537h-5.327l.852-4.59h14.019l-3.427 16.343h-8.625s.399-1.906.56-2.689c-.88 1.791-3.343 2.688-8.134 2.688h-10.572z"/></g></svg>