<?xml version="1.0" encoding="utf-8"?>
<!-- Generator: Adobe Illustrator 19.2.1, SVG Export Plug-In . SVG Version: 6.00 Build 0)  -->
<svg version="1.1" id="Layer_1" xmlns="http://www.w3.org/2000/svg" xmlns:xlink="http://www.w3.org/1999/xlink" x="0px" y="0px"
	 viewBox="0 0 268 37" style="enable-background:new 0 0 268 37;" xml:space="preserve">
<style type="text/css">
	.st0{fill:none;stroke:#231F20;}
	.st1{fill:#004272;stroke:#FFFFFF;stroke-width:0.9987;}
	.st2{fill:#FFFFFF;}
	.st3{fill:#004272;}
	.st4{fill-rule:evenodd;clip-rule:evenodd;fill:#004272;}
</style>
<line class="st0" x1="163.6" y1="0" x2="163.6" y2="37"/>
<g>
	<g id="XMLID_535_">
		<path id="XMLID_542_" d="M214.3,11.3c0.4,0.4,0.7,0.9,1,1.5C215.1,12.2,214.7,11.7,214.3,11.3z"/>
		<path id="XMLID_541_" d="M214.5,25c0.5-0.7,0.8-1.4,1.1-2.2c-0.6,1.6-1.7,3.1-3.2,4.3C213.3,26.4,214,25.7,214.5,25z"/>
		<path id="XMLID_540_" d="M224.7,13.1c-1.1,0-2.1,0.2-3,0.5c0.3,1.2,0.4,2.5,0.4,3.9c0,0.2,0,0.3,0,0.5c0.7-0.7,1.6-1,2.6-1
			c2.8,0,4.4,2.6,4.4,6.6s-1.6,6.5-4.4,6.5c-2.2,0-3.7-1.7-4.2-4.5c-0.8,1.6-1.8,3.1-3,4.4c1.6,2.6,4.2,4,7.3,4c5.1,0,9-4,9-10.4
			C233.7,17.2,229.8,13.1,224.7,13.1z"/>
		<path id="XMLID_539_" d="M220.5,14.2c-0.1-0.5-0.2-0.9-0.3-1.3c-1.3-4.4-4.5-6.7-8.7-6.7c-5.3,0-9.2,3.9-9.2,9.4
			c0,5.3,3,8.2,7.5,8.2c1.5,0,3-0.3,4.5-0.9c0.5-1.3,0.8-2.6,0.9-3.9c-1.3,0.6-2.6,1-4.1,1c-2.7,0-4.1-1.6-4.1-4.6
			c0-3.1,1.8-5.3,4.5-5.3c0.9,0,1.7,0.2,2.4,0.7c0,0,0,0,0,0c0.1,0.1,0.2,0.2,0.3,0.2c0.1,0.1,0.2,0.2,0.3,0.2
			c0.4,0.4,0.8,0.9,1,1.5c1.2,2.5,1.6,6.5,0.3,9.9c-0.3,0.8-0.6,1.5-1.1,2.2c-0.5,0.8-1.2,1.5-2.1,2.1c0,0-0.1,0-0.1,0.1
			c-0.1,0.1-0.2,0.2-0.3,0.2c-0.2,0.1-0.3,0.2-0.5,0.3c-0.1,0.1-0.2,0.1-0.4,0.2c0,0,0,0,0,0l0,0c-1.3,0.7-2.8,1.3-4.7,1.8V34l0,0
			c3.7-0.7,6.9-2.1,9.3-4.3c0.3-0.3,0.7-0.6,1-0.9c2.6-2.7,4-6.4,4-11.2C220.8,16.4,220.7,15.2,220.5,14.2z"/>
		<path id="XMLID_538_" d="M214.1,11c0.1,0.1,0.2,0.2,0.3,0.2C214.2,11.2,214.2,11.1,214.1,11z"/>
		<path id="XMLID_537_" d="M211.2,27.9C211.2,27.9,211.2,27.9,211.2,27.9L211.2,27.9C211.2,27.9,211.2,27.9,211.2,27.9z"/>
		<path id="XMLID_536_" d="M213.7,10.8c0.1,0.1,0.2,0.2,0.3,0.2C214,10.9,213.9,10.8,213.7,10.8C213.8,10.8,213.8,10.8,213.7,10.8z"
			/>
	</g>
	<g id="XMLID_1_">
		<path id="XMLID_2_" d="M239.5,18.5l-0.1-0.5c-0.3,0.3-0.7,0.5-1.2,0.5c-0.6,0-1-0.4-1-1c0-0.9,0.7-1.3,2.1-1.4v-0.1
			c0-0.3-0.2-0.5-0.6-0.5c-0.4,0-0.8,0.1-1.2,0.3l-0.1-0.9c0.4-0.2,0.9-0.3,1.5-0.3c1,0,1.5,0.3,1.5,1.3v2.5H239.5z M239.4,16.7
			c-0.8,0.1-1,0.4-1,0.7c0,0.2,0.1,0.4,0.4,0.4c0.2,0,0.4-0.1,0.6-0.3V16.7z"/>
		<path id="XMLID_5_" d="M243.4,18.5v-2.3c0-0.3-0.1-0.4-0.4-0.4c-0.2,0-0.4,0.1-0.6,0.3v2.4h-1.1v-3.7h1l0.1,0.5
			c0.3-0.3,0.7-0.6,1.1-0.6c0.7,0,1,0.4,1,1.1v2.6H243.4z"/>
		<path id="XMLID_7_" d="M246.6,18.6c-0.6,0-1.1-0.2-1.5-0.4l0.1-0.9c0.4,0.3,1,0.4,1.4,0.4c0.3,0,0.5-0.1,0.5-0.3
			c0-0.2-0.1-0.3-0.6-0.4c-0.9-0.2-1.3-0.5-1.3-1.2c0-0.7,0.5-1.1,1.4-1.1c0.5,0,1,0.1,1.4,0.3l-0.1,0.9c-0.4-0.2-0.9-0.3-1.2-0.3
			c-0.3,0-0.4,0.1-0.4,0.2c0,0.1,0.1,0.2,0.6,0.4c1,0.3,1.3,0.5,1.3,1.2C248.1,18.2,247.6,18.6,246.6,18.6z"/>
		<path id="XMLID_9_" d="M252.6,18.5l-0.1-0.5c-0.2,0.3-0.6,0.6-1.1,0.6c-0.7,0-1.3-0.6-1.3-1.8c0-1.4,0.7-2,1.5-2
			c0.3,0,0.6,0,0.8,0.1v-1.7l1.1-0.2v5.4H252.6z M252.5,15.8c-0.2-0.1-0.3-0.1-0.5-0.1c-0.4,0-0.7,0.3-0.7,1c0,0.6,0.2,0.9,0.6,0.9
			c0.2,0,0.4-0.2,0.6-0.4V15.8z"/>
		<path id="XMLID_12_" d="M257.5,17h-2.2c0.1,0.6,0.4,0.8,0.9,0.8c0.4,0,0.8-0.1,1.2-0.4l0.1,0.8c-0.4,0.3-0.9,0.4-1.5,0.4
			c-1.1,0-1.9-0.6-1.9-1.9c0-1.2,0.7-1.9,1.7-1.9c1.1,0,1.6,0.8,1.6,1.9C257.6,16.8,257.5,16.9,257.5,17z M255.9,15.5
			c-0.3,0-0.5,0.3-0.6,0.8h1.2C256.4,15.8,256.2,15.5,255.9,15.5z"/>
		<path id="XMLID_15_" d="M238.8,26.3c-0.6,0-1.1-0.2-1.5-0.4l0.1-0.9c0.4,0.3,1,0.4,1.4,0.4c0.3,0,0.5-0.1,0.5-0.3
			c0-0.2-0.1-0.3-0.6-0.4c-0.9-0.2-1.3-0.5-1.3-1.2c0-0.7,0.5-1.1,1.4-1.1c0.5,0,1,0.1,1.4,0.3l-0.1,0.9c-0.4-0.2-0.9-0.3-1.2-0.3
			c-0.3,0-0.4,0.1-0.4,0.2c0,0.1,0.1,0.2,0.6,0.4c1,0.3,1.3,0.5,1.3,1.2C240.3,25.9,239.8,26.3,238.8,26.3z"/>
		<path id="XMLID_17_" d="M242.5,26.3c-1,0-1.8-0.7-1.8-1.9c0-1.2,0.7-1.9,1.8-1.9c1,0,1.8,0.7,1.8,1.9
			C244.3,25.6,243.5,26.3,242.5,26.3z M242.5,23.5c-0.4,0-0.7,0.4-0.7,1c0,0.6,0.2,1,0.7,1c0.4,0,0.7-0.4,0.7-1
			C243.2,23.9,242.9,23.5,242.5,23.5z"/>
		<path id="XMLID_20_" d="M247.1,26.3l-0.1-0.5c-0.3,0.3-0.7,0.6-1.1,0.6c-0.7,0-1-0.4-1-1.1v-2.6h1.1v2.3c0,0.3,0.1,0.4,0.4,0.4
			c0.2,0,0.4-0.1,0.6-0.3v-2.4h1.1v3.7H247.1z"/>
		<path id="XMLID_22_" d="M251,26.3h-1.1l-1.3-3.6l1.2-0.1l0.7,2.3l0.7-2.3h1.1L251,26.3z"/>
		<path id="XMLID_24_" d="M255.7,24.7h-2.2c0.1,0.6,0.4,0.8,0.9,0.8c0.4,0,0.8-0.1,1.2-0.4l0.1,0.8c-0.4,0.3-0.9,0.4-1.5,0.4
			c-1.1,0-1.9-0.6-1.9-1.9c0-1.2,0.7-1.9,1.7-1.9c1.1,0,1.6,0.8,1.6,1.9C255.7,24.5,255.7,24.7,255.7,24.7z M254.1,23.3
			c-0.3,0-0.5,0.3-0.6,0.8h1.2C254.6,23.5,254.4,23.3,254.1,23.3z"/>
		<path id="XMLID_27_" d="M258.5,26.3V24c0-0.3-0.1-0.4-0.4-0.4c-0.2,0-0.4,0.1-0.6,0.3v2.4h-1.1v-3.7h1l0.1,0.5
			c0.3-0.3,0.7-0.6,1.1-0.6c0.7,0,1,0.4,1,1.1v2.6H258.5z"/>
		<path id="XMLID_29_" d="M261,22.1c-0.4,0-0.6-0.2-0.6-0.6c0-0.4,0.3-0.6,0.6-0.6c0.4,0,0.6,0.2,0.6,0.6
			C261.6,21.9,261.3,22.1,261,22.1z M260.4,26.3v-3.7h1.1v3.7H260.4z"/>
		<path id="XMLID_32_" d="M263.5,24.2v2h-1.1v-3.7h1l0.1,0.7c0.2-0.4,0.5-0.8,1.1-0.8l0.2,1.2C264.1,23.7,263.7,23.9,263.5,24.2z"/>
		<path id="XMLID_34_" d="M266.5,26.3c-0.6,0-1.1-0.2-1.5-0.4l0.1-0.9c0.4,0.3,1,0.4,1.4,0.4c0.3,0,0.5-0.1,0.5-0.3
			c0-0.2-0.1-0.3-0.6-0.4c-0.9-0.2-1.3-0.5-1.3-1.2c0-0.7,0.5-1.1,1.4-1.1c0.5,0,1,0.1,1.4,0.3l-0.1,0.9c-0.4-0.2-0.9-0.3-1.2-0.3
			c-0.3,0-0.4,0.1-0.4,0.2c0,0.1,0.1,0.2,0.6,0.4c1,0.3,1.3,0.5,1.3,1.2C268,25.9,267.4,26.3,266.5,26.3z"/>
	</g>
</g>
<g>
	<g>
		<path class="st1" d="M39.4,33.7c-0.3,1.5-1.8,2.7-3.3,2.7H2.8c-1.5,0-2.5-1.2-2.2-2.7L6.4,3.3c0.3-1.5,1.8-2.7,3.3-2.7h33.4
			c1.5,0,2.5,1.2,2.2,2.7L39.4,33.7z"/>
		<g>
			<path class="st2" d="M38.8,10.1c-0.5-0.6-1.3-0.9-2.2-0.9h-8l0.9-4.3H10.8L9.8,10h3.8c0.3,0,0.9,0,1.2,0.3
				c0.1,0.1,0.2,0.2,0.2,0.6c0,0.2,0,0.4-0.1,0.7c0,0-2.5,12.3-2.7,13.1c-0.4,1.4-1.1,2-2.5,2H6.3l-1.1,5.3h18.6l0.9-4.4h1.8
				c1,0,2-0.1,3-0.3c0,0.2-0.1,0.3-0.1,0.3l1.2,0H36l2.2-10.7h-9.6l-0.8,4.3c0,0,2,0,2.9,0c-0.1,0.3-0.1,0.5-0.1,0.8
				c-0.2,1-0.7,1.4-1.6,1.5c-0.1,0-3.2,0-3.3,0c0,0,0,0,0,0c0-0.1,0-0.1,0-0.2c0,0,2-9.4,2-9.6c0.1-0.5,0.2-0.6,0.2-0.7
				c0.1,0,0.2,0,0.4,0l0.1,0h4c0,0,0,0,0,0c0,0,0,0,0,0l0,0.1c0,0.2-0.1,0.8-0.2,1.2l-0.2,1.2h6.6l0.1-0.7c0-0.1,0.4-1.9,0.6-2.8
				l0,0C39.4,11.3,39.2,10.6,38.8,10.1z"/>
			<path class="st3" d="M20.8,27.8c-1.2,0-2.8-0.5-2.3-2.8c0,0,2.7-13.1,2.7-13.1c0.5-2,1.7-2.7,3.3-2.7h3.1l0.7-3.3H11.6l-0.7,3.3
				h2.6c0.4,0,1.4,0,2,0.7c0.4,0.5,0.6,1.2,0.4,2.1l-2.7,13.1c-0.4,1.6-1.4,2.7-3.3,2.7H7.1l-0.7,3.4H23l0.7-3.4H20.8z"/>
			<path class="st4" d="M20.7,26.8c-0.8,0-1.7-0.1-1.3-1.7L22.1,12c0.3-1.4,1.2-2,2.4-2h12.1c1.1,0,1.9,0.8,1.7,1.8
				c-0.2,0.9-0.6,2.7-0.6,2.7h-4.7c0,0,0.2-1,0.2-1.3c0.2-0.9-0.3-1.2-1-1.2h-4c-0.8,0-1.3-0.1-1.6,1.4l-2,9.6
				c-0.1,0.6-0.1,1.3,0.9,1.4h3.4c1.6-0.1,2.2-1.2,2.4-2.2c0.1-0.7,0.4-1.9,0.4-1.9H29l0.5-2.5h7.6l-1.9,8.9h-4.7c0,0,0.2-1,0.3-1.5
				c-0.5,1-1.8,1.5-4.4,1.5H20.7z"/>
		</g>
	</g>
	<g>
		<g>
			<path d="M61,10.1l-0.8,0.2c-0.4,0.1-0.9,0.5-1,1.1l-0.9,4.4c-0.1,0.2-0.1,0.5,0.1,0.6c0.1,0,0.1,0.1,0.1,0.2
				c0,0.2-0.1,0.2-0.3,0.2c-0.1,0-0.2,0-0.3-0.1l-1.5-0.6c-0.2-0.1-0.4-0.1-0.6,0c-0.6,0.4-1.8,0.7-2.8,0.7c-3.7,0-6-2.4-4.9-7.5
				C49,4.9,52.3,2,55.8,2c1.4,0,2.9,0.2,4.2,0.3c0.1,0,0.2,0.2,0.2,0.3l-0.8,3.8c0,0.2-0.2,0.3-0.3,0.3c-0.1,0-0.2-0.1-0.2-0.3
				c-0.1-2.4-1-3.5-3.3-3.5c-3.1,0-4.3,4.5-4.8,6.7c-0.5,2.4-0.6,6,2.4,6c1.1,0,2.7-1,3.1-2.5l0.5-2.2c0.1-0.5,0-0.7-0.1-0.9
				c-0.1-0.2-0.3-0.2-0.2-0.4c0-0.1,0.1-0.2,0.4-0.2h4.2c0.2,0,0.3,0.1,0.3,0.2C61.3,10,61.2,10.1,61,10.1z"/>
			<path d="M69.8,9c-0.1,0.2-0.2,0.4-0.4,0.4c-0.2,0-0.2-0.5-0.2-0.7c0-0.5-0.4-0.9-1.1-0.9c-0.8,0-1.7,0.5-2.2,1.2
				c-0.2,0.3-0.4,0.7-0.5,1l-1.1,5c-0.1,0.6,0.2,1,0.6,1.1l0.5,0.1c0.2,0.1,0.3,0.1,0.3,0.3c0,0.1-0.2,0.2-0.4,0.2h-4.9
				c-0.2,0-0.4-0.1-0.3-0.2c0-0.1,0.2-0.2,0.4-0.3l0.5-0.1c0.5-0.1,0.9-0.5,1-1.1l1.4-6.7c0.1-0.6-0.1-1-0.6-1.1l-0.7-0.1
				c-0.2,0-0.3-0.1-0.3-0.3c0-0.1,0.2-0.2,0.4-0.2h3c0.2,0,0.3,0.1,0.3,0.3l0.1,1c0,0.1,0.2,0.2,0.3,0c0.9-1.1,2.2-1.6,3.5-1.6
				c0.2,0,0.6,0.1,0.8,0.1c0.1,0,0.4,0.2,0.3,0.4L69.8,9z"/>
			<path d="M73.4,16.9c-3.1,0-4.2-2.6-3.6-5.3c0.6-2.8,2.8-5.3,5.9-5.3c3.1,0,4.2,2.5,3.7,5.3C78.8,14.4,76.5,16.9,73.4,16.9z
				 M75.4,7.4c-1.9,0-2.7,2.1-3.1,3.9c-0.4,1.8-0.7,4.7,1.4,4.7c1.9,0,2.7-2.3,3.1-4C77.2,10.1,77.5,7.4,75.4,7.4z"/>
			<path d="M90.1,16.7h-3.3c-0.2,0-0.3-0.1-0.3-0.3l-0.1-0.5c0-0.1-0.1-0.1-0.2,0c-0.8,0.7-1.9,1.1-2.9,1.1c-2,0-3.1-1.3-2.6-3.8
				l1-4.8c0.1-0.6-0.2-1-0.6-1.1l-0.5-0.1c-0.2-0.1-0.3-0.1-0.3-0.3c0-0.1,0.2-0.2,0.4-0.2h4c0.2,0,0.3,0.1,0.3,0.2
				c0,0.1-0.2,0.2-0.4,0.3c-0.2,0.2-0.4,0.5-0.5,1.2l-1.1,5.1c-0.3,1.4,0.1,2.1,1.2,2.1c0.9,0,2.4-0.7,2.6-1.9L88,8.3
				c0.1-0.6-0.1-1-0.5-1.1L87,7.1c-0.2,0-0.3-0.1-0.3-0.3c0-0.1,0.2-0.2,0.4-0.2h3.4c0.2,0,0.3,0.1,0.3,0.3l-0.4,1.6L88.9,15
				c-0.1,0.6,0.1,1,0.6,1.1l0.7,0.1c0.2,0,0.4,0.1,0.3,0.3C90.5,16.6,90.3,16.7,90.1,16.7z"/>
			<path d="M111.4,11.6h-5.2c-0.3,0-0.5,0.2-0.6,0.5c-0.5,2.6,0.4,3.7,1.8,3.7c1.1,0,2.3-0.8,2.9-1.5c0.1-0.1,0.2-0.1,0.2,0l0.4,0.4
				c0.1,0.1,0,0.1,0,0.2c-0.9,1.2-2.6,2.1-4.2,2.1c-2.2,0-4.3-1.5-3.5-5.3c0.7-3.2,3.2-5.2,5.8-5.2c2.1,0,3.8,1.3,3.2,4.5
				C112,11.2,111.7,11.6,111.4,11.6z M108.7,7.2c-1.2,0-2.2,1.2-2.7,3.1c-0.1,0.3,0,0.4,0.3,0.4c0,0,0.7,0,1.2,0h0.5
				c0.5,0,0.8,0,1-0.1c0.5-0.1,0.7-0.4,0.8-0.7C110.1,8.4,109.8,7.2,108.7,7.2z"/>
			<path d="M96.5,16.9c-0.9,0-1.4-0.1-2-0.3c-0.1,0-0.2,0-0.2,0.2l-0.5,1.9c-0.1,0.6,0.1,1,0.6,1.1l0.7,0.1c0.2,0,0.4,0.1,0.3,0.3
				c0,0.1-0.2,0.2-0.4,0.2h-4.2c-0.2,0-0.3-0.1-0.3-0.2c0-0.1,0.2-0.2,0.4-0.3c0.2-0.2,0.4-0.5,0.5-1.2l2.3-10.4
				c0.1-0.6-0.1-1-0.5-1.1l-0.7-0.1c-0.2,0-0.4-0.1-0.3-0.3c0-0.1,0.2-0.2,0.4-0.2h3.1c0.2,0,0.3,0.1,0.3,0.3l0.1,0.5
				c0,0.1,0.1,0.1,0.1,0.1c0,0,0.1,0,0.2-0.1c0.9-0.7,1.8-1,2.6-1c2.2,0,3.7,1.5,2.9,5.4C101.3,15,98.8,16.9,96.5,16.9z M98.4,7.7
				c-0.8,0-1.6,0.5-2.2,1.3c-0.1,0.2-0.3,0.5-0.3,0.6l-0.8,4c-0.4,1.7,0.1,2.4,1.5,2.4c1.1,0,2.4-1.2,3.1-4.3
				C100.2,8.7,99.5,7.7,98.4,7.7z"/>
		</g>
		<g>
			<g>
				<path d="M49.8,34.1h-6.2c-0.2,0-0.4-0.1-0.3-0.2c0-0.1,0.2-0.3,0.4-0.3l1-0.1c0.4-0.1,0.9-0.5,1-1.1l1.2-5.5l1.1-5.5
					c0.1-0.6-0.1-1-0.6-1.1l-0.9-0.1c-0.2,0-0.3-0.1-0.3-0.3c0-0.1,0.2-0.2,0.4-0.2h6.2c0.2,0,0.4,0.1,0.3,0.2
					c0,0.1-0.2,0.3-0.4,0.3l-1,0.1c-0.4,0.1-0.9,0.5-1,1.1l-1.2,5.5l-1.2,5.5c-0.1,0.6,0.1,1,0.6,1.1l0.9,0.1c0.2,0,0.3,0.1,0.3,0.3
					C50.2,34.1,50,34.1,49.8,34.1z"/>
				<path d="M62.4,34.1h-4c-0.2,0-0.3-0.1-0.3-0.2c0-0.1,0.2-0.2,0.4-0.3c0.2-0.2,0.4-0.5,0.5-1.2l1.1-5.1c0.3-1.4-0.1-2.1-1.2-2.1
					c-0.9,0-2.4,0.7-2.6,1.9l-1.2,5.4c-0.1,0.6,0.1,1,0.5,1.1l0.5,0.1c0.2,0,0.3,0.1,0.3,0.3c0,0.1-0.2,0.2-0.4,0.2h-4.9
					c-0.2,0-0.4-0.1-0.3-0.2c0-0.1,0.2-0.2,0.4-0.3l0.5-0.1c0.5-0.1,0.9-0.5,1-1.1l1.4-6.7c0.1-0.6-0.1-1-0.6-1.1l-0.9-0.1
					c-0.2,0-0.4-0.1-0.3-0.3c0-0.1,0.2-0.2,0.4-0.2h3.5c0.2,0,0.3,0.1,0.3,0.3l0.1,0.5c0,0.1,0.1,0.1,0.2,0c0.8-0.7,1.9-1.1,2.9-1.1
					c2,0,3.1,1.3,2.6,3.8l-1,4.8c-0.1,0.6,0.2,1,0.6,1.1l0.5,0.1c0.2,0.1,0.3,0.1,0.3,0.3C62.8,34.1,62.6,34.1,62.4,34.1z"/>
				<path d="M74.3,24.5c-0.3,0.1-0.5,0.3-0.8,0.6l-5.7,9c-0.1,0.1-0.4,0.2-0.8,0.2c-0.3,0-0.6-0.1-0.6-0.2l-2-9
					c-0.1-0.3-0.3-0.5-0.5-0.5l-0.5-0.1c-0.2,0-0.4-0.1-0.3-0.3c0-0.1,0.2-0.2,0.4-0.2h4.8c0.2,0,0.4,0,0.3,0.2
					c0,0.2-0.2,0.2-0.4,0.3l-0.7,0.2c-0.3,0.1-0.4,0.2-0.4,0.5c0,0.1,0,0.3,0,0.4L68,31c0,0.1,0.2,0.1,0.3,0l3.3-5.5
					c0.1-0.1,0.1-0.2,0.1-0.4c0-0.2,0-0.4-0.2-0.5l-0.6-0.2c-0.2,0-0.4-0.1-0.3-0.3c0-0.1,0.2-0.2,0.4-0.2h3.4
					c0.2,0,0.4,0.1,0.3,0.2C74.6,24.4,74.5,24.4,74.3,24.5z"/>
				<path d="M81.6,29h-5.2c-0.3,0-0.5,0.2-0.6,0.5c-0.5,2.6,0.4,3.7,1.8,3.7c1.1,0,2.3-0.8,2.9-1.5c0.1-0.1,0.2-0.1,0.2,0l0.4,0.4
					c0.1,0.1,0,0.1,0,0.2c-0.9,1.2-2.6,2.1-4.2,2.1c-2.2,0-4.3-1.5-3.5-5.3c0.7-3.2,3.2-5.2,5.8-5.2c2.1,0,3.8,1.3,3.2,4.5
					C82.2,28.6,81.9,29,81.6,29z M78.9,24.7c-1.2,0-2.2,1.2-2.7,3.1c-0.1,0.3,0,0.4,0.3,0.4c0,0,0.7,0,1.2,0h0.5c0.5,0,0.8,0,1-0.1
					c0.5-0.1,0.7-0.4,0.8-0.7C80.3,25.8,80,24.7,78.9,24.7z"/>
				<path d="M86.1,34.4c-1.3,0-2.9-0.3-3.5-0.5c-0.2,0-0.3-0.1-0.2-0.3c0.1-0.4,0.1-0.9,0.2-1.3c0.1-0.4,0.1-0.9,0.2-1.3
					c0-0.1,0.1-0.3,0.3-0.3c0.1,0,0.3,0.1,0.3,0.3c0.3,2,1.2,2.5,3.1,2.5c0.9,0,2.1-0.5,2.3-1.5c0.5-2.5-5.7-1.4-4.8-5.3
					c0.4-1.8,1.8-2.8,4.2-2.8c1.3,0,3.5,0.3,3.5,0.3c0.1,0,0.2,0.1,0.2,0.2l-0.5,2.5c0,0.1-0.1,0.3-0.3,0.3c-0.1,0-0.2-0.1-0.2-0.2
					c-0.2-1.8-1.1-2.2-2.8-2.2c-1,0-1.9,0.4-2.1,1.4c-0.4,2.1,5.8,1.2,5,5.2C90.2,33.8,88.1,34.4,86.1,34.4z"/>
				<path d="M98.2,33.7c-0.6,0.4-1.5,0.6-2.5,0.6c-1.9,0-3-0.6-2.7-2.2l1.5-6.8h-1.9c-0.1,0-0.2-0.1-0.2-0.2l0.2-0.8
					c0-0.1,0.1-0.2,0.3-0.2h1.5c0.2,0,0.5-0.1,0.8-0.6l2-2.7c0.1-0.1,0.3-0.2,0.4-0.2c0.1,0,0.3,0.1,0.2,0.3L97.1,24h2.7
					c0.2,0,0.2,0,0.2,0.2l-0.2,0.9c0,0.1-0.1,0.2-0.3,0.2l-2.7,0l-1.3,6.3c-0.2,1.1-0.2,1.8,1.1,1.8c0.5,0,1.1-0.2,1.4-0.4
					c0.1,0,0.2-0.1,0.2,0l0.1,0.5C98.3,33.6,98.3,33.6,98.2,33.7z"/>
				<path d="M103,34.4c-3.1,0-4.2-2.6-3.6-5.3c0.6-2.8,2.8-5.3,5.9-5.3c3.1,0,4.2,2.5,3.7,5.3C108.3,31.8,106.1,34.4,103,34.4z
					 M104.9,24.9c-1.9,0-2.7,2.1-3.1,3.9c-0.4,1.8-0.7,4.7,1.4,4.7c1.9,0,2.7-2.3,3.1-4C106.7,27.5,107,24.9,104.9,24.9z"/>
				<path d="M118.1,26.5c-0.1,0.2-0.2,0.4-0.4,0.4c-0.2,0-0.2-0.5-0.2-0.7c0-0.5-0.4-0.9-1.1-0.9c-0.8,0-1.7,0.5-2.2,1.2
					c-0.2,0.3-0.4,0.7-0.5,1l-1.1,5c-0.1,0.6,0.2,1,0.6,1.1l0.5,0.1c0.2,0.1,0.3,0.1,0.3,0.3c0,0.1-0.2,0.2-0.4,0.2h-4.9
					c-0.2,0-0.4-0.1-0.3-0.2c0-0.1,0.2-0.2,0.4-0.3l0.5-0.1c0.5-0.1,0.9-0.5,1-1.1l1.4-6.7c0.1-0.6-0.1-1-0.6-1.1l-0.7-0.1
					c-0.2,0-0.3-0.1-0.3-0.3c0-0.1,0.2-0.2,0.4-0.2h3c0.2,0,0.3,0.1,0.3,0.3l0.1,1c0,0.1,0.2,0.2,0.3,0c0.9-1.1,2.2-1.6,3.5-1.6
					c0.2,0,0.6,0.1,0.8,0.1c0.1,0,0.4,0.2,0.3,0.4L118.1,26.5z"/>
				<path d="M121.4,34.4c-1.3,0-2.9-0.3-3.5-0.5c-0.2,0-0.3-0.1-0.2-0.3c0.1-0.4,0.1-0.9,0.2-1.3c0.1-0.4,0.1-0.9,0.2-1.3
					c0-0.1,0.1-0.3,0.3-0.3c0.1,0,0.3,0.1,0.3,0.3c0.3,2,1.2,2.5,3.1,2.5c0.9,0,2.1-0.5,2.3-1.5c0.5-2.5-5.7-1.4-4.8-5.3
					c0.4-1.8,1.8-2.8,4.2-2.8c1.3,0,3.5,0.3,3.5,0.3c0.1,0,0.2,0.1,0.2,0.2l-0.5,2.5c0,0.1-0.1,0.3-0.3,0.3c-0.1,0-0.2-0.1-0.2-0.2
					c-0.2-1.8-1.1-2.2-2.8-2.2c-1,0-1.9,0.4-2.1,1.4c-0.4,2.1,5.8,1.2,5,5.2C125.5,33.8,123.4,34.4,121.4,34.4z"/>
			</g>
		</g>
	</g>
</g>
</svg>
